<svg xmlns="http://www.w3.org/2000/svg" width="1200" height="630" viewBox="0 0 1200 630" role="img" aria-label="Foques">
  <defs>
    <linearGradient id="bg" x1="0" y1="0" x2="1" y2="1">
      <stop offset="0" stop-color="#060a14" />
      <stop offset="1" stop-color="#101a2f" />
    </linearGradient>
    <linearGradient id="accent" x1="0" y1="0" x2="1" y2="1">
      <stop offset="0" stop-color="#00b8ff" />
      <stop offset="1" stop-color="#26f4c9" />
    </linearGradient>
    <filter id="blur" x="-20%" y="-20%" width="140%" height="140%">
      <feGaussianBlur stdDeviation="24" />
    </filter>
  </defs>

  <rect width="1200" height="630" fill="url(#bg)" />
  <circle cx="190" cy="90" r="140" fill="#008bff" opacity="0.26" filter="url(#blur)" />
  <circle cx="1020" cy="120" r="120" fill="#26f4c9" opacity="0.19" filter="url(#blur)" />

  <rect x="85" y="95" width="1030" height="440" rx="34" fill="#0d1528" opacity="0.92" stroke="#2a3f65" />

  <rect x="130" y="150" width="72" height="72" rx="22" fill="url(#accent)" />
  <path d="M152 168h34v10h-24v13h18v10h-18v21h-10V168z" fill="#f4f9ff" />

  <text x="230" y="198" fill="#f3f7ff" font-family="Avenir Next,Segoe UI,sans-serif" font-size="54" font-weight="700">
    Foques
  </text>
  <text x="130" y="285" fill="#f7fbff" font-family="Avenir Next,Segoe UI,sans-serif" font-size="58" font-weight="700">
    Protect your attention.
  </text>
  <text x="130" y="347" fill="#f7fbff" font-family="Avenir Next,Segoe UI,sans-serif" font-size="58" font-weight="700">
    Finish what matters.
  </text>

  <text x="130" y="414" fill="#b7c6e4" font-family="Avenir Next,Segoe UI,sans-serif" font-size="30">
    Calm focus for creators, students, and busy professionals.
  </text>

  <rect x="130" y="450" width="365" height="58" rx="29" fill="url(#accent)" />
  <text x="182" y="488" fill="#f7fbff" font-family="Avenir Next,Segoe UI,sans-serif" font-size="28" font-weight="700">
    Join the waitlist
  </text>

  <text x="840" y="490" fill="#9fb7de" font-family="Avenir Next,Segoe UI,sans-serif" font-size="24" text-anchor="end">
    foques.app
  </text>
</svg>
